<mxfile host="app.diagrams.net" agent="Mozilla/5.0 (X11; Linux x86_64) AppleWebKit/537.36 (KHTML, like Gecko) Chrome/125.0.0.0 Safari/537.36" version="24.7.14">
  <diagram name="Page-1" id="r7Yd6YkvmWgIxtRqSVW3">
    <mxGraphModel dx="1362" dy="793" grid="1" gridSize="10" guides="1" tooltips="1" connect="1" arrows="1" fold="1" page="1" pageScale="1" pageWidth="850" pageHeight="1100" math="0" shadow="0">
      <root>
        <mxCell id="0" />
        <mxCell id="1" parent="0" />
        <mxCell id="tMWJM1gVGbqzoL_ha6n8-1" value="" style="ellipse;whiteSpace=wrap;html=1;strokeWidth=4;" vertex="1" parent="1">
          <mxGeometry x="20" y="20" width="820" height="400" as="geometry" />
        </mxCell>
        <mxCell id="tMWJM1gVGbqzoL_ha6n8-2" value="&lt;font style=&quot;font-size: 32px;&quot;&gt;Inteligência Artificial&lt;/font&gt;" style="text;html=1;align=center;verticalAlign=middle;whiteSpace=wrap;rounded=0;" vertex="1" parent="1">
          <mxGeometry x="230" y="40" width="360" height="30" as="geometry" />
        </mxCell>
        <mxCell id="tMWJM1gVGbqzoL_ha6n8-13" value="" style="ellipse;whiteSpace=wrap;html=1;strokeWidth=4;fillColor=none;" vertex="1" parent="1">
          <mxGeometry x="340" y="95" width="490" height="225" as="geometry" />
        </mxCell>
        <mxCell id="tMWJM1gVGbqzoL_ha6n8-14" value="&lt;font style=&quot;font-size: 24px;&quot;&gt;Aprendizado&lt;/font&gt;&lt;div&gt;&lt;font style=&quot;font-size: 24px;&quot;&gt;de Máquina&lt;/font&gt;&lt;/div&gt;" style="text;html=1;align=center;verticalAlign=middle;whiteSpace=wrap;rounded=0;fontSize=24;" vertex="1" parent="1">
          <mxGeometry x="490" y="120" width="330" height="30" as="geometry" />
        </mxCell>
        <mxCell id="tMWJM1gVGbqzoL_ha6n8-16" value="" style="ellipse;whiteSpace=wrap;html=1;strokeWidth=4;fillColor=none;" vertex="1" parent="1">
          <mxGeometry x="30" y="90" width="490" height="225" as="geometry" />
        </mxCell>
        <mxCell id="tMWJM1gVGbqzoL_ha6n8-17" value="Visão Computacional" style="text;html=1;align=center;verticalAlign=middle;whiteSpace=wrap;rounded=0;fontSize=24;" vertex="1" parent="1">
          <mxGeometry x="50" y="150" width="150" height="30" as="geometry" />
        </mxCell>
        <mxCell id="tMWJM1gVGbqzoL_ha6n8-18" value="" style="ellipse;whiteSpace=wrap;html=1;strokeWidth=4;fillColor=none;" vertex="1" parent="1">
          <mxGeometry x="370" y="170" width="410" height="130" as="geometry" />
        </mxCell>
        <mxCell id="tMWJM1gVGbqzoL_ha6n8-19" value="&lt;font style=&quot;font-size: 24px;&quot;&gt;Aprendizado&lt;/font&gt;&lt;div&gt;&lt;font style=&quot;font-size: 24px;&quot;&gt;Profundo&lt;/font&gt;&lt;/div&gt;" style="text;html=1;align=center;verticalAlign=middle;whiteSpace=wrap;rounded=0;fontSize=24;" vertex="1" parent="1">
          <mxGeometry x="500" y="220" width="320" height="30" as="geometry" />
        </mxCell>
        <mxCell id="tMWJM1gVGbqzoL_ha6n8-20" value="" style="ellipse;whiteSpace=wrap;html=1;strokeWidth=4;fillColor=none;" vertex="1" parent="1">
          <mxGeometry x="340" y="250" width="360" height="150" as="geometry" />
        </mxCell>
        <mxCell id="tMWJM1gVGbqzoL_ha6n8-21" value="Processamento de&amp;nbsp;&lt;div&gt;Linguagem Natural&lt;/div&gt;" style="text;html=1;align=center;verticalAlign=middle;whiteSpace=wrap;rounded=0;fontSize=24;" vertex="1" parent="1">
          <mxGeometry x="340" y="333" width="320" height="30" as="geometry" />
        </mxCell>
      </root>
    </mxGraphModel>
  </diagram>
</mxfile>
